<mxfile host="app.diagrams.net" modified="2021-08-23T13:11:50.793Z" agent="5.0 (Windows)" etag="4vZua2_oR3r5QK2yVZtF" version="14.9.8" type="github" pages="3">
  <diagram id="utFX_jpw2eTb2XTR2TY4" name="Page-1">
    <mxGraphModel dx="1035" dy="563" grid="1" gridSize="10" guides="1" tooltips="1" connect="1" arrows="1" fold="1" page="1" pageScale="1" pageWidth="827" pageHeight="1169" math="0" shadow="0">
      <root>
        <mxCell id="0" />
        <mxCell id="1" parent="0" />
        <mxCell id="2" value="Node" style="rounded=0;whiteSpace=wrap;html=1;fontSize=14;align=right;verticalAlign=top;fillColor=#dae8fc;strokeColor=#6c8ebf;" parent="1" vertex="1">
          <mxGeometry x="600" y="80" width="160" height="110" as="geometry" />
        </mxCell>
        <mxCell id="3" style="edgeStyle=orthogonalEdgeStyle;rounded=0;orthogonalLoop=1;jettySize=auto;html=1;fontSize=14;exitX=0;exitY=0.5;exitDx=0;exitDy=0;entryX=1;entryY=0.5;entryDx=0;entryDy=0;" parent="1" source="8" target="4" edge="1">
          <mxGeometry relative="1" as="geometry">
            <mxPoint x="580" y="290" as="sourcePoint" />
            <mxPoint x="540" y="200" as="targetPoint" />
          </mxGeometry>
        </mxCell>
        <mxCell id="4" value="Paitc-center" style="rounded=1;whiteSpace=wrap;html=1;fontSize=16;" parent="1" vertex="1">
          <mxGeometry x="320" y="170" width="140" height="80" as="geometry" />
        </mxCell>
        <mxCell id="5" style="edgeStyle=orthogonalEdgeStyle;rounded=0;orthogonalLoop=1;jettySize=auto;html=1;entryX=0;entryY=0.5;entryDx=0;entryDy=0;fontSize=14;" parent="1" source="7" target="4" edge="1">
          <mxGeometry relative="1" as="geometry">
            <Array as="points">
              <mxPoint x="190" y="210" />
            </Array>
          </mxGeometry>
        </mxCell>
        <mxCell id="6" value="&lt;div&gt;HTTPS&lt;/div&gt;&lt;div&gt;定义节点配置&lt;br&gt;&lt;/div&gt;" style="edgeLabel;html=1;align=center;verticalAlign=middle;resizable=0;points=[];fontSize=14;" parent="5" vertex="1" connectable="0">
          <mxGeometry x="0.2834" y="-3" relative="1" as="geometry">
            <mxPoint x="-23" y="17" as="offset" />
          </mxGeometry>
        </mxCell>
        <mxCell id="7" value="CLI/Web" style="rounded=1;whiteSpace=wrap;html=1;fontSize=14;" parent="1" vertex="1">
          <mxGeometry x="60" y="180" width="120" height="60" as="geometry" />
        </mxCell>
        <mxCell id="8" value="Paitc" style="rounded=1;whiteSpace=wrap;html=1;fontSize=14;" parent="1" vertex="1">
          <mxGeometry x="610" y="110" width="120" height="60" as="geometry" />
        </mxCell>
        <mxCell id="9" value="&lt;div style=&quot;font-size: 14px&quot;&gt;Node&lt;br style=&quot;font-size: 14px&quot;&gt;&lt;/div&gt;" style="rounded=0;whiteSpace=wrap;html=1;fontSize=14;align=right;verticalAlign=top;fillColor=#dae8fc;strokeColor=#6c8ebf;" parent="1" vertex="1">
          <mxGeometry x="600" y="230" width="160" height="110" as="geometry" />
        </mxCell>
        <mxCell id="10" value="Paitc" style="rounded=1;whiteSpace=wrap;html=1;fontSize=14;" parent="1" vertex="1">
          <mxGeometry x="610" y="260" width="120" height="60" as="geometry" />
        </mxCell>
        <mxCell id="11" style="edgeStyle=orthogonalEdgeStyle;rounded=0;orthogonalLoop=1;jettySize=auto;html=1;fontSize=14;exitX=0;exitY=0.5;exitDx=0;exitDy=0;entryX=1;entryY=0.5;entryDx=0;entryDy=0;" parent="1" source="10" target="4" edge="1">
          <mxGeometry relative="1" as="geometry">
            <mxPoint x="720" y="380" as="sourcePoint" />
            <mxPoint x="544" y="220" as="targetPoint" />
          </mxGeometry>
        </mxCell>
        <mxCell id="12" value="HTTPS Heartbeat" style="edgeLabel;html=1;align=center;verticalAlign=middle;resizable=0;points=[];fontSize=14;" parent="11" vertex="1" connectable="0">
          <mxGeometry x="-0.3869" y="-4" relative="1" as="geometry">
            <mxPoint x="61" y="-76" as="offset" />
          </mxGeometry>
        </mxCell>
        <mxCell id="13" value="" style="edgeStyle=orthogonalEdgeStyle;rounded=0;orthogonalLoop=1;jettySize=auto;html=1;fontSize=14;fillColor=#008a00;strokeColor=#66B2FF;" parent="1" source="14" target="4" edge="1">
          <mxGeometry relative="1" as="geometry" />
        </mxCell>
        <mxCell id="14" value="根据节点上报的状态，判断节点是否正确按需配置，如果没有则返回desired 配置给节点" style="text;html=1;strokeColor=none;fillColor=none;align=center;verticalAlign=middle;whiteSpace=wrap;rounded=0;shadow=0;glass=0;fontSize=14;" parent="1" vertex="1">
          <mxGeometry x="270" y="330" width="240" height="80" as="geometry" />
        </mxCell>
        <mxCell id="15" value="" style="edgeStyle=orthogonalEdgeStyle;rounded=0;orthogonalLoop=1;jettySize=auto;html=1;fontSize=14;strokeColor=#66B2FF;" parent="1" source="16" target="10" edge="1">
          <mxGeometry relative="1" as="geometry" />
        </mxCell>
        <mxCell id="16" value="定期上报自己的状态和配置信息到控制中心。如果返回新的配置，则按照配置进行操作。" style="text;html=1;strokeColor=none;fillColor=none;align=center;verticalAlign=middle;whiteSpace=wrap;rounded=0;shadow=0;glass=0;fontSize=14;" parent="1" vertex="1">
          <mxGeometry x="580" y="390" width="180" height="100" as="geometry" />
        </mxCell>
      </root>
    </mxGraphModel>
  </diagram>
  <diagram id="HsDn0qJqNbt5XsugOy3h" name="Page-2">
    <mxGraphModel dx="1035" dy="563" grid="1" gridSize="10" guides="1" tooltips="1" connect="1" arrows="1" fold="1" page="1" pageScale="1" pageWidth="827" pageHeight="1169" math="0" shadow="0">
      <root>
        <mxCell id="mbJ3numnMHiUmXzb7it8-0" />
        <mxCell id="mbJ3numnMHiUmXzb7it8-1" parent="mbJ3numnMHiUmXzb7it8-0" />
        <mxCell id="BIMr8kuiV4m6xNYRAMml-2" value="&lt;div&gt;&lt;b&gt;&lt;font style=&quot;font-size: 18px&quot;&gt;控制中心&lt;/font&gt;&lt;/b&gt;&lt;br&gt;&lt;/div&gt;" style="rounded=0;whiteSpace=wrap;html=1;fillColor=#dae8fc;strokeColor=#6c8ebf;align=center;labelPosition=center;verticalLabelPosition=top;verticalAlign=bottom;" parent="mbJ3numnMHiUmXzb7it8-1" vertex="1">
          <mxGeometry x="260" y="210" width="480" height="290" as="geometry" />
        </mxCell>
        <mxCell id="mbJ3numnMHiUmXzb7it8-4" value="" style="edgeStyle=orthogonalEdgeStyle;rounded=0;orthogonalLoop=1;jettySize=auto;html=1;" parent="mbJ3numnMHiUmXzb7it8-1" source="mbJ3numnMHiUmXzb7it8-2" target="mbJ3numnMHiUmXzb7it8-3" edge="1">
          <mxGeometry relative="1" as="geometry" />
        </mxCell>
        <mxCell id="mbJ3numnMHiUmXzb7it8-2" value="Nginx" style="rounded=1;whiteSpace=wrap;html=1;" parent="mbJ3numnMHiUmXzb7it8-1" vertex="1">
          <mxGeometry x="340" y="250" width="120" height="60" as="geometry" />
        </mxCell>
        <mxCell id="mbJ3numnMHiUmXzb7it8-6" value="" style="edgeStyle=orthogonalEdgeStyle;rounded=0;orthogonalLoop=1;jettySize=auto;html=1;" parent="mbJ3numnMHiUmXzb7it8-1" source="mbJ3numnMHiUmXzb7it8-3" target="mbJ3numnMHiUmXzb7it8-5" edge="1">
          <mxGeometry relative="1" as="geometry" />
        </mxCell>
        <mxCell id="mbJ3numnMHiUmXzb7it8-3" value="Django" style="rounded=1;whiteSpace=wrap;html=1;" parent="mbJ3numnMHiUmXzb7it8-1" vertex="1">
          <mxGeometry x="540" y="250" width="120" height="60" as="geometry" />
        </mxCell>
        <mxCell id="mbJ3numnMHiUmXzb7it8-5" value="MongoDB/MySQL" style="rounded=1;whiteSpace=wrap;html=1;" parent="mbJ3numnMHiUmXzb7it8-1" vertex="1">
          <mxGeometry x="540" y="390" width="120" height="60" as="geometry" />
        </mxCell>
        <mxCell id="BIMr8kuiV4m6xNYRAMml-1" style="edgeStyle=orthogonalEdgeStyle;rounded=0;orthogonalLoop=1;jettySize=auto;html=1;entryX=0;entryY=0.5;entryDx=0;entryDy=0;" parent="mbJ3numnMHiUmXzb7it8-1" source="BIMr8kuiV4m6xNYRAMml-0" target="mbJ3numnMHiUmXzb7it8-2" edge="1">
          <mxGeometry relative="1" as="geometry" />
        </mxCell>
        <mxCell id="BIMr8kuiV4m6xNYRAMml-0" value="流控服务程序" style="rounded=1;whiteSpace=wrap;html=1;fontSize=14;" parent="mbJ3numnMHiUmXzb7it8-1" vertex="1">
          <mxGeometry x="70" y="250" width="120" height="60" as="geometry" />
        </mxCell>
      </root>
    </mxGraphModel>
  </diagram>
  <diagram id="gHfPawbLRYXEUbLPYr5e" name="Page-3">
    <mxGraphModel dx="1035" dy="563" grid="1" gridSize="10" guides="1" tooltips="1" connect="1" arrows="1" fold="1" page="1" pageScale="1" pageWidth="827" pageHeight="1169" math="0" shadow="0">
      <root>
        <mxCell id="b-uI0jCtORmIKLQDu1wV-0" />
        <mxCell id="b-uI0jCtORmIKLQDu1wV-1" parent="b-uI0jCtORmIKLQDu1wV-0" />
        <mxCell id="b-uI0jCtORmIKLQDu1wV-2" value="Paitc Agent" style="shape=umlLifeline;participant=umlEntity;perimeter=lifelinePerimeter;whiteSpace=wrap;html=1;container=1;collapsible=0;recursiveResize=0;verticalAlign=bottom;spacingTop=36;outlineConnect=0;labelPosition=center;verticalLabelPosition=top;align=center;" parent="b-uI0jCtORmIKLQDu1wV-1" vertex="1">
          <mxGeometry x="190" y="160" width="40" height="440" as="geometry" />
        </mxCell>
        <mxCell id="b-uI0jCtORmIKLQDu1wV-9" value="" style="html=1;points=[];perimeter=orthogonalPerimeter;fontSize=14;" parent="b-uI0jCtORmIKLQDu1wV-2" vertex="1">
          <mxGeometry x="15" y="90" width="10" height="40" as="geometry" />
        </mxCell>
        <mxCell id="b-uI0jCtORmIKLQDu1wV-10" value="init/loading last config" style="edgeStyle=orthogonalEdgeStyle;html=1;align=left;spacingLeft=2;endArrow=block;rounded=0;entryX=1;entryY=0;fontSize=14;" parent="b-uI0jCtORmIKLQDu1wV-2" source="b-uI0jCtORmIKLQDu1wV-2" target="b-uI0jCtORmIKLQDu1wV-9" edge="1">
          <mxGeometry x="0.0667" y="15" relative="1" as="geometry">
            <mxPoint x="15" y="80" as="sourcePoint" />
            <Array as="points">
              <mxPoint x="45" y="80" />
              <mxPoint x="45" y="90" />
            </Array>
            <mxPoint as="offset" />
          </mxGeometry>
        </mxCell>
        <mxCell id="b-uI0jCtORmIKLQDu1wV-11" value="" style="html=1;points=[];perimeter=orthogonalPerimeter;fontSize=14;" parent="b-uI0jCtORmIKLQDu1wV-2" vertex="1">
          <mxGeometry x="15" y="340" width="10" height="40" as="geometry" />
        </mxCell>
        <mxCell id="b-uI0jCtORmIKLQDu1wV-12" value="apply new config if desired" style="edgeStyle=orthogonalEdgeStyle;html=1;align=left;spacingLeft=2;endArrow=block;rounded=0;entryX=1;entryY=0;fontSize=14;" parent="b-uI0jCtORmIKLQDu1wV-2" target="b-uI0jCtORmIKLQDu1wV-11" edge="1">
          <mxGeometry relative="1" as="geometry">
            <mxPoint x="20" y="320" as="sourcePoint" />
            <Array as="points">
              <mxPoint x="50" y="320" />
            </Array>
          </mxGeometry>
        </mxCell>
        <mxCell id="b-uI0jCtORmIKLQDu1wV-3" value="Paitc Center" style="shape=umlLifeline;participant=umlEntity;perimeter=lifelinePerimeter;whiteSpace=wrap;html=1;container=1;collapsible=0;recursiveResize=0;verticalAlign=bottom;spacingTop=36;outlineConnect=0;labelPosition=center;verticalLabelPosition=top;align=center;" parent="b-uI0jCtORmIKLQDu1wV-1" vertex="1">
          <mxGeometry x="560" y="160" width="40" height="440" as="geometry" />
        </mxCell>
        <mxCell id="b-uI0jCtORmIKLQDu1wV-6" value="" style="html=1;points=[];perimeter=orthogonalPerimeter;" parent="b-uI0jCtORmIKLQDu1wV-1" vertex="1">
          <mxGeometry x="575" y="360" width="10" height="80" as="geometry" />
        </mxCell>
        <mxCell id="b-uI0jCtORmIKLQDu1wV-7" value="Heartbeat" style="html=1;verticalAlign=bottom;endArrow=block;entryX=0;entryY=0;fontSize=14;" parent="b-uI0jCtORmIKLQDu1wV-1" target="b-uI0jCtORmIKLQDu1wV-6" edge="1">
          <mxGeometry relative="1" as="geometry">
            <mxPoint x="209.5" y="360" as="sourcePoint" />
          </mxGeometry>
        </mxCell>
        <mxCell id="b-uI0jCtORmIKLQDu1wV-8" value="Respoisne with/without desired status" style="html=1;verticalAlign=bottom;endArrow=open;dashed=1;endSize=8;exitX=0;exitY=0.95;fontSize=14;" parent="b-uI0jCtORmIKLQDu1wV-1" source="b-uI0jCtORmIKLQDu1wV-6" edge="1">
          <mxGeometry relative="1" as="geometry">
            <mxPoint x="209.5" y="436" as="targetPoint" />
          </mxGeometry>
        </mxCell>
        <mxCell id="b-uI0jCtORmIKLQDu1wV-13" value="Every 30 seconds" style="shape=umlFrame;whiteSpace=wrap;html=1;fontSize=14;width=100;height=40;" parent="b-uI0jCtORmIKLQDu1wV-1" vertex="1">
          <mxGeometry x="100" y="310" width="580" height="260" as="geometry" />
        </mxCell>
      </root>
    </mxGraphModel>
  </diagram>
</mxfile>
